<svg xmlns="http://www.w3.org/2000/svg" viewBox="0 0 660 150" width="660px" height="150px" version="1.1">
    <path style="font-style:normal;font-weight:normal;font-size:72px;line-height:1;font-family:'Brandmark Sans 26';font-variant-ligatures:normal;text-align:center;text-anchor:middle"
          d="m 419.08625,-35.64 v 5.904 h 9.792 v -5.904 c 0,-12.384 -9.792,-15.984 -15.336,-15.984 -5.544,0 -15.336,3.6 -15.336,15.984 v 20.88 c 0,12.384 9.792,15.984 15.336,15.984 5.544,0 15.336,-3.6 15.336,-15.984 v -9.504 h -13.248 v 9.36 h 3.456 v 0.144 c 0,4.536 -2.736,6.336 -5.544,6.336 -2.808,0 -5.544,-1.8 -5.544,-6.336 v -20.88 c 0,-4.536 2.736,-6.336 5.544,-6.336 2.808,0 5.544,1.8 5.544,6.336 z"
          stroke-width="0" stroke-linejoin="miter" stroke-miterlimit="2" fill="#ffffff" stroke="#ffffff"
          transform="translate(-42.936 42.93600000000004) translate(50 -42.9232) scale(2.8) translate(-398.20625 51.624)"/>
    <path style="font-style:normal;font-weight:normal;font-size:72px;line-height:1;font-family:'Brandmark Sans 26';font-variant-ligatures:normal;text-align:center;text-anchor:middle"
          d="m 462.54275,0 v -50.4 h -9.792 v 20.664 h -9.72 V -50.4 h -9.792 V 0 h 9.792 v -20.448 h 9.72 V 0 Z"
          stroke-width="0" stroke-linejoin="miter" stroke-miterlimit="2" fill="#eaeaea" stroke="#eaeaea"
          transform="translate(-42.936 42.93600000000004) translate(148.09099999999984 -39.495999999999974) scale(2.8) translate(-433.23875 50.4)"/>
    <path style="font-style:normal;font-weight:normal;font-size:72px;line-height:1;font-family:'Brandmark Sans 26';font-variant-ligatures:normal;text-align:center;text-anchor:middle"
          d="M 481.23125,-15.984 488.28725,0 h 9.792 l -8.136,-18.504 c 4.176,-2.736 6.768,-7.704 6.768,-14.688 0,-11.232 -6.624,-17.208 -15.768,-17.208 h -13.392 V 0 h 9.792 v -15.984 z m -3.888,-9.36 v -15.768 h 4.104 c 1.872,0 5.904,1.224 5.904,7.92 0,6.696 -4.032,7.848 -5.904,7.848 z"
          stroke-width="0" stroke-linejoin="miter" stroke-miterlimit="2" fill="#d4d4d4" stroke="#d4d4d4"
          transform="translate(-42.936 42.93600000000004) translate(244.1659999999999 -39.495999999999974) scale(2.8) translate(-467.55125 50.4)"/>
    <path style="font-style:normal;font-weight:normal;font-size:72px;line-height:1;font-family:'Brandmark Sans 26';font-variant-ligatures:normal;text-align:center;text-anchor:middle"
          d="m 515.91725,-51.624 c -5.544,0 -15.336,3.6 -15.336,15.984 v 20.88 c 0,12.384 9.792,15.984 15.336,15.984 5.544,0 15.336,-3.6 15.336,-15.984 v -20.88 c 0,-12.384 -9.792,-15.984 -15.336,-15.984 z m -5.544,36.864 v -20.88 c 0,-4.536 2.736,-6.336 5.544,-6.336 2.808,0 5.544,1.8 5.544,6.336 v 20.88 c 0,4.536 -2.736,6.336 -5.544,6.336 -2.808,0 -5.544,-1.8 -5.544,-6.336 z"
          stroke-width="0" stroke-linejoin="miter" stroke-miterlimit="2" fill="#bfbfbf" stroke="#bfbfbf"
          transform="translate(-42.936 42.93600000000004) translate(336.6499999999999 -42.9232) scale(2.8) translate(-500.58125 51.624)"/>
    <path style="font-style:normal;font-weight:normal;font-size:72px;line-height:1;font-family:'Brandmark Sans 26';font-variant-ligatures:normal;text-align:center;text-anchor:middle"
          d="m 550.22975,-51.624 c -5.544,0 -15.336,3.6 -15.336,15.984 v 20.88 c 0,12.384 9.792,15.984 15.336,15.984 5.544,0 15.336,-3.6 15.336,-15.984 v -20.88 c 0,-12.384 -9.792,-15.984 -15.336,-15.984 z m -5.544,36.864 v -20.88 c 0,-4.536 2.736,-6.336 5.544,-6.336 2.808,0 5.544,1.8 5.544,6.336 v 20.88 c 0,4.536 -2.736,6.336 -5.544,6.336 -2.808,0 -5.544,-1.8 -5.544,-6.336 z"
          stroke-width="0" stroke-linejoin="miter" stroke-miterlimit="2" fill="#a9a9a9" stroke="#a9a9a9"
          transform="translate(-42.936 42.93600000000004) translate(432.72499999999985 -42.9232) scale(2.8) translate(-534.89375 51.624)"/>
    <path style="font-style:normal;font-weight:normal;font-size:72px;line-height:1;font-family:'Brandmark Sans 26';font-variant-ligatures:normal;text-align:center;text-anchor:middle"
          d="m 585.96087,0 11.232,-50.4 h -9.79199 l -6.264,30.816 -6.264,-30.816 h -9.79201 l 11.304,50.4 z"
          stroke-width="0" stroke-linejoin="miter" stroke-miterlimit="2" fill="#949494" stroke="#949494"
          transform="translate(-42.936 42.93600000000004) translate(517.248936 -39.495999999999974) scale(2.8) translate(-565.08087 50.4)"/>
    <path style="font-style:normal;font-weight:normal;font-size:72px;line-height:1;font-family:'Brandmark Sans 26';font-variant-ligatures:normal;text-align:center;text-anchor:middle"
          d="M 617.23812,-15.912 628.18213,-50.4 h -9.79201 l -6.048,22.32 -6.12,-22.32 h -9.792 l 10.94401,34.488 V 0 h 9.86399 z"
          stroke-width="0" stroke-linejoin="miter" stroke-miterlimit="2" fill="#7e7e7e" stroke="#7e7e7e"
          transform="translate(-42.93600000000004 42.93600000000004) translate(605.026836 -39.495999999999974) scale(2.8) translate(-596.43012 50.4)"/>
</svg>